STARTFONT 2.1
FONT fr-25
COMMENT
COMMENT GENERATED BY "../snftobdf 1.0"
COMMENT AUTHOR mleisher@nmsu.edu (Mark Leisher)
COMMENT DATE Wed Dec 19 17:00:13 1990
COMMENT
SIZE 17 75 75
FONTBOUNDINGBOX 17 25 0 -5
STARTPROPERTIES 10
COPYRIGHT "Public domain font.  Share and enjoy."
FAMILY_NAME "fr-25.bdf"
POINT_SIZE 240
WEIGHT 164
RESOLUTION 103
X_HEIGHT 20
QUAD_WIDTH 17
DEFAULT_CHAR 0
FONT_ASCENT 20
FONT_DESCENT 5
ENDPROPERTIES
CHARS 126
STARTCHAR C001
ENCODING 1
SWIDTH 963 0
DWIDTH 17 0
BBX 17 25 0 -5
BITMAP
000000
000000
060000
060000
060000
060000
060000
060000
060000
060000
060000
060000
060000
060000
c63000
666000
36c000
1f8000
0f0000
060000
000000
000000
000000
000000
000000
ENDCHAR
STARTCHAR C002
ENCODING 2
SWIDTH 963 0
DWIDTH 17 0
BBX 17 25 0 -5
BITMAP
000000
000000
000000
000000
001800
1e1800
3f3000
61f000
c0e000
c0c000
c0c000
c0c000
c0c000
c0c000
c0c000
c0c000
c0c000
61e000
3f7000
1e3000
000000
000000
000000
000000
000000
ENDCHAR
STARTCHAR C003
ENCODING 3
SWIDTH 963 0
DWIDTH 17 0
BBX 17 25 0 -5
BITMAP
000000
000000
000000
1f8000
3fc000
30c000
606000
606000
c06000
c0e000
c3c000
c70000
c18000
c0c000
c06000
c06000
c06000
e06000
ffc000
df8000
c00000
c00000
c00000
c00000
800000
ENDCHAR
STARTCHAR C004
ENCODING 4
SWIDTH 963 0
DWIDTH 17 0
BBX 17 25 0 -5
BITMAP
000000
000000
000000
000000
000000
000000
000000
030000
078000
078000
0cc000
0cc000
186000
186000
303000
303000
601800
601800
c00c00
c00c00
000000
000000
000000
000000
000000
ENDCHAR
STARTCHAR C005
ENCODING 5
SWIDTH 963 0
DWIDTH 17 0
BBX 17 25 0 -5
BITMAP
000000
000000
000000
000000
000000
000000
000000
000000
000000
000000
000000
fff800
fff800
001800
001800
001800
001800
001800
001800
000000
000000
000000
000000
000000
000000
ENDCHAR
STARTCHAR C006
ENCODING 6
SWIDTH 963 0
DWIDTH 17 0
BBX 17 25 0 -5
BITMAP
000000
000000
000000
000000
000000
000000
0f0000
3f0000
700000
600000
c00000
c00000
fe0000
fe0000
c00000
c00000
600000
700000
3f0000
0f0000
000000
000000
000000
000000
000000
ENDCHAR
STARTCHAR C007
ENCODING 7
SWIDTH 963 0
DWIDTH 17 0
BBX 17 25 0 -5
BITMAP
000000
000000
000000
000000
000000
000000
3ff800
7ff800
d86000
986000
186000
186000
186000
186000
186000
186000
186000
186000
186000
186000
000000
000000
000000
000000
000000
ENDCHAR
STARTCHAR C010
ENCODING 8
SWIDTH 963 0
DWIDTH 17 0
BBX 17 25 0 -5
BITMAP
c00000
c00000
600000
600000
300000
300000
180000
180000
0c0000
0c0000
0e0000
0e0000
1b0000
1b0000
318000
318000
60c000
60c000
c06000
c07000
000000
000000
000000
000000
000000
ENDCHAR
STARTCHAR C011
ENCODING 9
SWIDTH 963 0
DWIDTH 17 0
BBX 17 25 0 -5
BITMAP
000000
000000
000000
000000
000000
000000
000000
000000
000000
000000
000000
000000
000000
000000
000000
000000
000000
000000
000000
000000
000000
000000
000000
000000
000000
ENDCHAR
STARTCHAR C012
ENCODING 10
SWIDTH 963 0
DWIDTH 17 0
BBX 17 25 0 -5
BITMAP
000000
000000
000000
000000
000000
000000
000000
000000
000000
000000
000000
000000
000000
000000
000000
000000
000000
000000
000000
000000
000000
000000
000000
000000
000000
ENDCHAR
STARTCHAR C013
ENCODING 11
SWIDTH 963 0
DWIDTH 17 0
BBX 17 25 0 -5
BITMAP
000000
000000
060000
0f0000
1f8000
36c000
666000
c63000
060000
060000
060000
060000
060000
060000
060000
060000
060000
060000
060000
060000
000000
000000
000000
000000
000000
ENDCHAR
STARTCHAR C014
ENCODING 12
SWIDTH 963 0
DWIDTH 17 0
BBX 17 25 0 -5
BITMAP
000000
000000
000000
000000
000000
000000
000000
000000
000000
000000
000000
000000
000000
000000
000000
000000
000000
000000
000000
000000
000000
000000
000000
000000
000000
ENDCHAR
STARTCHAR C016
ENCODING 14
SWIDTH 963 0
DWIDTH 17 0
BBX 17 25 0 -5
BITMAP
000000
000000
000000
000000
000000
000000
000000
000000
3c3c00
7e7e00
666600
c3c300
c3c300
c18300
c3c300
67c600
7e7e00
3c3c00
000000
000000
000000
000000
000000
000000
000000
ENDCHAR
STARTCHAR C017
ENCODING 15
SWIDTH 963 0
DWIDTH 17 0
BBX 17 25 0 -5
BITMAP
000000
0f0000
3f8000
70c000
60c000
006000
006000
0f3000
3fb000
70f000
607000
c07000
c03000
c03000
c03000
c03000
606000
70e000
3fc000
0f0000
000000
000000
000000
000000
000000
ENDCHAR
STARTCHAR C020
ENCODING 16
SWIDTH 963 0
DWIDTH 17 0
BBX 17 25 0 -5
BITMAP
000000
000000
000000
000000
000000
000000
000000
3ff800
7ff800
600000
c00000
c00000
c00000
c00000
c00000
600000
7ff800
3ff800
000000
000000
000000
000000
000000
000000
000000
ENDCHAR
STARTCHAR C021
ENCODING 17
SWIDTH 963 0
DWIDTH 17 0
BBX 17 25 0 -5
BITMAP
000000
000000
000000
000000
000000
000000
000000
ffe000
fff000
003000
001800
001800
001800
001800
001800
003000
fff000
ffe000
000000
000000
000000
000000
000000
000000
000000
ENDCHAR
STARTCHAR C022
ENCODING 18
SWIDTH 963 0
DWIDTH 17 0
BBX 17 25 0 -5
BITMAP
000000
000000
000000
000000
000000
000000
1f0000
7fc000
60c000
c06000
c06000
c06000
c06000
c06000
c06000
c06000
c06000
c06000
c06000
c06000
000000
000000
000000
000000
000000
ENDCHAR
STARTCHAR C023
ENCODING 19
SWIDTH 963 0
DWIDTH 17 0
BBX 17 25 0 -5
BITMAP
000000
000000
000000
000000
000000
000000
c06000
c06000
c06000
c06000
c06000
c06000
c06000
c06000
c06000
c06000
c06000
60c000
7fc000
1f0000
000000
000000
000000
000000
000000
ENDCHAR
STARTCHAR C024
ENCODING 20
SWIDTH 963 0
DWIDTH 17 0
BBX 17 25 0 -5
BITMAP
c00600
c00600
c00600
600c00
600c00
600c00
301800
301800
3ff800
1ff000
183000
183000
0c6000
0c6000
0c6000
06c000
06c000
06c000
038000
038000
038000
010000
000000
000000
000000
ENDCHAR
STARTCHAR C025
ENCODING 21
SWIDTH 963 0
DWIDTH 17 0
BBX 17 25 0 -5
BITMAP
ff8000
ff8000
018000
018000
018000
018000
018000
018000
018000
018000
ff8000
ff8000
018000
018000
018000
018000
018000
018000
018000
018000
ff8000
ff8000
000000
000000
000000
ENDCHAR
STARTCHAR C026
ENCODING 22
SWIDTH 963 0
DWIDTH 17 0
BBX 17 25 0 -5
BITMAP
000000
000000
000000
000000
000000
000000
1ff000
3ff800
701c00
d83600
cc6600
c6c600
c38600
c38600
c6c600
cc6600
d83600
701c00
3ff800
1ff000
000000
000000
000000
000000
000000
ENDCHAR
STARTCHAR C027
ENCODING 23
SWIDTH 963 0
DWIDTH 17 0
BBX 17 25 0 -5
BITMAP
000000
000000
000000
000000
000000
000000
042000
0c3000
181800
300c00
600600
ffff00
ffff00
600600
300c00
181800
0c3000
042000
000000
000000
000000
000000
000000
000000
000000
ENDCHAR
STARTCHAR C030
ENCODING 24
SWIDTH 963 0
DWIDTH 17 0
BBX 17 25 0 -5
BITMAP
000000
000000
000000
000000
000000
000000
040000
0c0000
180000
300000
600000
fffe00
fffe00
600000
300000
180000
0c0000
040000
000000
000000
000000
000000
000000
000000
000000
ENDCHAR
STARTCHAR C031
ENCODING 25
SWIDTH 963 0
DWIDTH 17 0
BBX 17 25 0 -5
BITMAP
000000
000000
000000
000000
000000
000000
004000
006000
003000
001800
000c00
fffe00
fffe00
000c00
001800
003000
006000
004000
000000
000000
000000
000000
000000
000000
000000
ENDCHAR
STARTCHAR C032
ENCODING 26
SWIDTH 963 0
DWIDTH 17 0
BBX 17 25 0 -5
BITMAP
000000
000000
000000
000000
00c000
00c000
018000
018000
030000
ffe000
ffe000
060000
0c0000
0c0000
ffe000
ffe000
300000
300000
600000
600000
000000
000000
000000
000000
000000
ENDCHAR
STARTCHAR C033
ENCODING 27
SWIDTH 963 0
DWIDTH 17 0
BBX 17 25 0 -5
BITMAP
000000
000000
000000
010000
010000
038000
038000
07c000
0ee000
1c7000
383800
701c00
f01e00
701c00
383800
1c7000
0ee000
07c000
038000
038000
010000
010000
000000
000000
000000
ENDCHAR
STARTCHAR C034
ENCODING 28
SWIDTH 963 0
DWIDTH 17 0
BBX 17 25 0 -5
BITMAP
000000
000000
000000
000000
000000
000c00
003c00
00f000
03c000
0f0000
3c0000
f00000
f00000
3c0000
0f0000
03c000
00f000
003c00
000c00
000000
fffc00
fffc00
000000
000000
000000
ENDCHAR
STARTCHAR C035
ENCODING 29
SWIDTH 963 0
DWIDTH 17 0
BBX 17 25 0 -5
BITMAP
000000
000000
000000
000000
000000
c00000
f00000
3c0000
0f0000
03c000
00f000
003c00
003c00
00f000
03c000
0f0000
3c0000
f00000
c00000
000000
fffc00
fffc00
000000
000000
000000
ENDCHAR
STARTCHAR C036
ENCODING 30
SWIDTH 963 0
DWIDTH 17 0
BBX 17 25 0 -5
BITMAP
000000
000000
000000
000000
ffe000
ffe000
000000
000000
000000
000000
000000
ffe000
ffe000
000000
000000
000000
000000
000000
ffe000
ffe000
000000
000000
000000
000000
000000
ENDCHAR
STARTCHAR C037
ENCODING 31
SWIDTH 963 0
DWIDTH 17 0
BBX 17 25 0 -5
BITMAP
000000
000000
000000
000000
000000
000000
c00c00
c00c00
601800
601800
303000
303000
186000
186000
0cc000
0cc000
078000
078000
030000
030000
000000
000000
000000
000000
000000
ENDCHAR
STARTCHAR C040
ENCODING 32
SWIDTH 963 0
DWIDTH 17 0
BBX 17 25 0 -5
BITMAP
000000
000000
000000
000000
000000
000000
000000
000000
000000
000000
000000
000000
000000
000000
000000
000000
000000
000000
000000
000000
000000
000000
000000
000000
000000
ENDCHAR
STARTCHAR C041
ENCODING 33
SWIDTH 963 0
DWIDTH 17 0
BBX 17 25 0 -5
BITMAP
600000
f00000
f00000
f00000
f00000
600000
600000
600000
600000
600000
600000
600000
600000
600000
000000
000000
600000
f00000
f00000
600000
000000
000000
000000
000000
000000
ENDCHAR
STARTCHAR C042
ENCODING 34
SWIDTH 963 0
DWIDTH 17 0
BBX 17 25 0 -5
BITMAP
618000
f3c000
f3c000
f3c000
f3c000
618000
618000
618000
618000
618000
000000
000000
000000
000000
000000
000000
000000
000000
000000
000000
000000
000000
000000
000000
000000
ENDCHAR
STARTCHAR C043
ENCODING 35
SWIDTH 963 0
DWIDTH 17 0
BBX 17 25 0 -5
BITMAP
000000
063000
063000
063000
0c6000
0c6000
7ffc00
7ffc00
0c6000
18c000
18c000
18c000
fff800
fff800
318000
318000
318000
630000
630000
630000
000000
000000
000000
000000
000000
ENDCHAR
STARTCHAR C044
ENCODING 36
SWIDTH 963 0
DWIDTH 17 0
BBX 17 25 0 -5
BITMAP
0c0000
3f4000
7fc000
ccc000
ccc000
cc4000
cc0000
cc0000
6c0000
3c0000
1e0000
0f0000
0d8000
0cc000
0cc000
8cc000
8cc000
ccc000
ff8000
7f0000
0c0000
0c0000
0c0000
000000
000000
ENDCHAR
STARTCHAR C045
ENCODING 37
SWIDTH 963 0
DWIDTH 17 0
BBX 17 25 0 -5
BITMAP
1e0000
330000
630000
630000
631800
633000
666000
3cc000
018000
030000
060000
0c0000
19e000
333000
663000
c63000
063000
063000
066000
03c000
000000
000000
000000
000000
000000
ENDCHAR
STARTCHAR C046
ENCODING 38
SWIDTH 963 0
DWIDTH 17 0
BBX 17 25 0 -5
BITMAP
1f0000
3f0000
610000
610000
600000
600000
300000
1f0000
3f0000
600000
600000
c7e000
c7e000
c18000
c18000
c18000
618000
638000
3f8000
1d8000
018000
018000
018000
000000
000000
ENDCHAR
STARTCHAR C047
ENCODING 39
SWIDTH 963 0
DWIDTH 17 0
BBX 17 25 0 -5
BITMAP
600000
f00000
f00000
f00000
f00000
600000
600000
600000
600000
600000
000000
000000
000000
000000
000000
000000
000000
000000
000000
000000
000000
000000
000000
000000
000000
ENDCHAR
STARTCHAR C050
ENCODING 40
SWIDTH 963 0
DWIDTH 17 0
BBX 17 25 0 -5
BITMAP
070000
0c0000
180000
300000
300000
700000
600000
c00000
c00000
c00000
c00000
c00000
c00000
c00000
c00000
600000
600000
300000
300000
180000
0c0000
070000
000000
000000
000000
ENDCHAR
STARTCHAR C051
ENCODING 41
SWIDTH 963 0
DWIDTH 17 0
BBX 17 25 0 -5
BITMAP
e00000
300000
180000
0c0000
0c0000
060000
060000
030000
030000
030000
030000
030000
030000
030000
030000
060000
060000
0c0000
0c0000
180000
300000
e00000
000000
000000
000000
ENDCHAR
STARTCHAR C052
ENCODING 42
SWIDTH 963 0
DWIDTH 17 0
BBX 17 25 0 -5
BITMAP
000000
000000
000000
000000
000000
060000
0f0000
0f0000
666000
f6f000
fff000
6f6000
060000
1f8000
39c000
79e000
79e000
30c000
000000
000000
000000
000000
000000
000000
000000
ENDCHAR
STARTCHAR C053
ENCODING 43
SWIDTH 963 0
DWIDTH 17 0
BBX 17 25 0 -5
BITMAP
000000
000000
000000
000000
000000
000000
060000
060000
060000
060000
060000
fff000
fff000
060000
060000
060000
060000
060000
000000
000000
000000
000000
000000
000000
000000
ENDCHAR
STARTCHAR C054
ENCODING 44
SWIDTH 963 0
DWIDTH 17 0
BBX 17 25 0 -5
BITMAP
000000
000000
000000
000000
000000
000000
000000
000000
000000
000000
000000
000000
000000
000000
000000
700000
f80000
f80000
f80000
380000
380000
300000
700000
e00000
c00000
ENDCHAR
STARTCHAR C055
ENCODING 45
SWIDTH 963 0
DWIDTH 17 0
BBX 17 25 0 -5
BITMAP
000000
000000
000000
000000
000000
000000
000000
000000
000000
000000
000000
fff000
fff000
000000
000000
000000
000000
000000
000000
000000
000000
000000
000000
000000
000000
ENDCHAR
STARTCHAR C056
ENCODING 46
SWIDTH 963 0
DWIDTH 17 0
BBX 17 25 0 -5
BITMAP
000000
000000
000000
000000
000000
000000
000000
000000
000000
000000
000000
000000
000000
000000
000000
700000
f80000
f80000
f80000
700000
000000
000000
000000
000000
000000
ENDCHAR
STARTCHAR C057
ENCODING 47
SWIDTH 963 0
DWIDTH 17 0
BBX 17 25 0 -5
BITMAP
003000
003000
006000
006000
00c000
00c000
018000
018000
030000
030000
060000
060000
0c0000
0c0000
180000
180000
300000
300000
600000
600000
c00000
c00000
000000
000000
000000
ENDCHAR
STARTCHAR C060
ENCODING 48
SWIDTH 963 0
DWIDTH 17 0
BBX 17 25 0 -5
BITMAP
1f0000
3f8000
60c000
60c000
c06000
c06000
c06000
c06000
c06000
c06000
c06000
c06000
c06000
c06000
c06000
c06000
60c000
60c000
3f8000
0f0000
000000
000000
000000
000000
000000
ENDCHAR
STARTCHAR C061
ENCODING 49
SWIDTH 963 0
DWIDTH 17 0
BBX 17 25 0 -5
BITMAP
0c0000
1c0000
3c0000
6c0000
cc0000
8c0000
0c0000
0c0000
0c0000
0c0000
0c0000
0c0000
0c0000
0c0000
0c0000
0c0000
0c0000
1e0000
7f8000
ffc000
000000
000000
000000
000000
000000
ENDCHAR
STARTCHAR C062
ENCODING 50
SWIDTH 963 0
DWIDTH 17 0
BBX 17 25 0 -5
BITMAP
1f0000
3f8000
60c000
406000
006000
006000
006000
006000
006000
00c000
018000
030000
060000
0c0000
180000
300000
602000
c06000
ffe000
ffe000
000000
000000
000000
000000
000000
ENDCHAR
STARTCHAR C063
ENCODING 51
SWIDTH 963 0
DWIDTH 17 0
BBX 17 25 0 -5
BITMAP
ffc000
ffc000
c0c000
80c000
018000
018000
030000
030000
060000
070000
018000
00c000
00c000
006000
006000
006000
c0e000
e1c000
7f8000
1e0000
000000
000000
000000
000000
000000
ENDCHAR
STARTCHAR C064
ENCODING 52
SWIDTH 963 0
DWIDTH 17 0
BBX 17 25 0 -5
BITMAP
038000
038000
078000
058000
0d8000
098000
198000
118000
318000
218000
618000
418000
c18000
ffe000
ffe000
018000
018000
018000
018000
018000
000000
000000
000000
000000
000000
ENDCHAR
STARTCHAR C065
ENCODING 53
SWIDTH 963 0
DWIDTH 17 0
BBX 17 25 0 -5
BITMAP
7fe000
7fe000
600000
600000
600000
600000
600000
600000
7f0000
7f8000
00c000
00e000
006000
006000
006000
006000
c06000
e0c000
ff8000
7f0000
000000
000000
000000
000000
000000
ENDCHAR
STARTCHAR C066
ENCODING 54
SWIDTH 963 0
DWIDTH 17 0
BBX 17 25 0 -5
BITMAP
038000
0f0000
1c0000
300000
300000
600000
600000
ff0000
f18000
c0c000
c0e000
c06000
c06000
c06000
c06000
e06000
60c000
70c000
3f8000
0f0000
000000
000000
000000
000000
000000
ENDCHAR
STARTCHAR C067
ENCODING 55
SWIDTH 963 0
DWIDTH 17 0
BBX 17 25 0 -5
BITMAP
ffc000
ffc000
c0c000
80c000
008000
018000
010000
030000
020000
020000
060000
040000
040000
0c0000
080000
180000
100000
100000
300000
300000
000000
000000
000000
000000
000000
ENDCHAR
STARTCHAR C070
ENCODING 56
SWIDTH 963 0
DWIDTH 17 0
BBX 17 25 0 -5
BITMAP
1f0000
3f8000
60c000
60c000
c06000
c06000
60c000
60c000
318000
1f0000
3f8000
70c000
c0e000
c06000
c06000
c06000
c06000
e0e000
7fc000
1f8000
000000
000000
000000
000000
000000
ENDCHAR
STARTCHAR C071
ENCODING 57
SWIDTH 963 0
DWIDTH 17 0
BBX 17 25 0 -5
BITMAP
0e0000
3f8000
61c000
60c000
c06000
c06000
c06000
c06000
c06000
606000
61e000
3fe000
1e6000
00c000
00c000
00c000
018000
630000
fe0000
7c0000
000000
000000
000000
000000
000000
ENDCHAR
STARTCHAR C072
ENCODING 58
SWIDTH 963 0
DWIDTH 17 0
BBX 17 25 0 -5
BITMAP
000000
000000
000000
000000
000000
700000
f80000
f80000
f80000
700000
000000
000000
000000
000000
000000
700000
f80000
f80000
f80000
700000
000000
000000
000000
000000
000000
ENDCHAR
STARTCHAR C073
ENCODING 59
SWIDTH 963 0
DWIDTH 17 0
BBX 17 25 0 -5
BITMAP
000000
000000
000000
000000
000000
700000
f80000
f80000
f80000
700000
000000
000000
000000
000000
000000
700000
f80000
f80000
f80000
380000
380000
300000
700000
e00000
c00000
ENDCHAR
STARTCHAR C074
ENCODING 60
SWIDTH 963 0
DWIDTH 17 0
BBX 17 25 0 -5
BITMAP
000000
000000
000000
000000
000000
018000
030000
060000
0c0000
180000
300000
600000
c00000
600000
300000
180000
0c0000
060000
030000
018000
000000
000000
000000
000000
000000
ENDCHAR
STARTCHAR C075
ENCODING 61
SWIDTH 963 0
DWIDTH 17 0
BBX 17 25 0 -5
BITMAP
000000
000000
000000
000000
000000
000000
000000
000000
000000
ffe000
ffe000
000000
000000
000000
ffe000
ffe000
000000
000000
000000
000000
000000
000000
000000
000000
000000
ENDCHAR
STARTCHAR C076
ENCODING 62
SWIDTH 963 0
DWIDTH 17 0
BBX 17 25 0 -5
BITMAP
000000
000000
000000
000000
000000
c00000
600000
300000
180000
0c0000
060000
030000
018000
030000
060000
0c0000
180000
300000
600000
c00000
000000
000000
000000
000000
000000
ENDCHAR
STARTCHAR C077
ENCODING 63
SWIDTH 963 0
DWIDTH 17 0
BBX 17 25 0 -5
BITMAP
3f0000
7f8000
e1c000
e0c000
e0c000
40c000
018000
030000
060000
0c0000
0c0000
0c0000
0c0000
0c0000
000000
000000
0c0000
1e0000
1e0000
0c0000
000000
000000
000000
000000
000000
ENDCHAR
STARTCHAR C100
ENCODING 64
SWIDTH 963 0
DWIDTH 17 0
BBX 17 25 0 -5
BITMAP
0e0000
3f0000
218000
618000
408000
408000
c78000
8c8000
988000
988000
988000
988000
898000
8fc000
800000
c00000
400000
608000
3f8000
1f0000
000000
000000
000000
000000
000000
ENDCHAR
STARTCHAR C101
ENCODING 65
SWIDTH 963 0
DWIDTH 17 0
BBX 17 25 0 -5
BITMAP
030000
030000
078000
058000
04c000
0cc000
08c000
08c000
086000
186000
106000
106000
1ff000
3ff000
203000
203000
201800
601800
e01c00
f03e00
000000
000000
000000
000000
000000
ENDCHAR
STARTCHAR C102
ENCODING 66
SWIDTH 963 0
DWIDTH 17 0
BBX 17 25 0 -5
BITMAP
ff0000
7fc000
30e000
306000
303000
303000
303000
306000
3fc000
3fc000
306000
303000
301800
301800
301800
301800
301800
303000
7fe000
ffc000
000000
000000
000000
000000
000000
ENDCHAR
STARTCHAR C103
ENCODING 67
SWIDTH 963 0
DWIDTH 17 0
BBX 17 25 0 -5
BITMAP
0fe800
3ff800
303800
601800
600800
c00000
c00000
c00000
c00000
c00000
c00000
c00000
c00000
c00000
c00800
601800
601800
303800
3ff000
0fe000
000000
000000
000000
000000
000000
ENDCHAR
STARTCHAR C104
ENCODING 68
SWIDTH 963 0
DWIDTH 17 0
BBX 17 25 0 -5
BITMAP
ffc000
7fe000
303000
303000
301800
301800
301800
301800
301800
301800
301800
301800
301800
301800
301800
301800
303000
303000
7fe000
ffc000
000000
000000
000000
000000
000000
ENDCHAR
STARTCHAR C105
ENCODING 69
SWIDTH 963 0
DWIDTH 17 0
BBX 17 25 0 -5
BITMAP
fff800
7ff800
181800
180800
180800
180000
180000
181000
183000
1ff000
1ff000
183000
181000
180000
180000
180800
180800
181800
7ff800
fff800
000000
000000
000000
000000
000000
ENDCHAR
STARTCHAR C106
ENCODING 70
SWIDTH 963 0
DWIDTH 17 0
BBX 17 25 0 -5
BITMAP
fff800
7ff800
181800
180800
180800
180000
180000
181000
183000
1ff000
1ff000
183000
181000
180000
180000
180000
180000
180000
7e0000
ff0000
000000
000000
000000
000000
000000
ENDCHAR
STARTCHAR C107
ENCODING 71
SWIDTH 963 0
DWIDTH 17 0
BBX 17 25 0 -5
BITMAP
0fe800
1ff800
303800
601800
600800
c00000
c00000
c00000
c00000
c00000
c00000
c1f800
c1f800
c01800
c01800
601800
601800
303800
3ff000
0fe000
000000
000000
000000
000000
000000
ENDCHAR
STARTCHAR C110
ENCODING 72
SWIDTH 963 0
DWIDTH 17 0
BBX 17 25 0 -5
BITMAP
fc7e00
783c00
301800
301800
301800
301800
301800
301800
3ff800
3ff800
301800
301800
301800
301800
301800
301800
301800
301800
783c00
fc7e00
000000
000000
000000
000000
000000
ENDCHAR
STARTCHAR C111
ENCODING 73
SWIDTH 963 0
DWIDTH 17 0
BBX 17 25 0 -5
BITMAP
ff0000
7e0000
180000
180000
180000
180000
180000
180000
180000
180000
180000
180000
180000
180000
180000
180000
180000
180000
7e0000
ff0000
000000
000000
000000
000000
000000
ENDCHAR
STARTCHAR C112
ENCODING 74
SWIDTH 963 0
DWIDTH 17 0
BBX 17 25 0 -5
BITMAP
03fc00
01f800
006000
006000
006000
006000
006000
006000
006000
006000
006000
006000
006000
006000
606000
e06000
e0c000
e1c000
7f8000
1f0000
000000
000000
000000
000000
000000
ENDCHAR
STARTCHAR C113
ENCODING 75
SWIDTH 963 0
DWIDTH 17 0
BBX 17 25 0 -5
BITMAP
f8f800
707800
306000
30c000
318000
330000
360000
3c0000
3c0000
3e0000
360000
370000
330000
318000
318000
30c000
30c000
306000
707800
f83800
000000
000000
000000
000000
000000
ENDCHAR
STARTCHAR C114
ENCODING 76
SWIDTH 963 0
DWIDTH 17 0
BBX 17 25 0 -5
BITMAP
fe0000
7c0000
180000
180000
180000
180000
180000
180000
180000
180000
180000
180000
180000
180000
180800
181800
181800
183800
fff800
fff800
000000
000000
000000
000000
000000
ENDCHAR
STARTCHAR C115
ENCODING 77
SWIDTH 963 0
DWIDTH 17 0
BBX 17 25 0 -5
BITMAP
e00f00
e00e00
701e00
701600
701600
583600
582600
582600
4c6600
4c4600
4c4600
46c600
468600
468600
438600
438600
438600
410600
e00f00
f00f00
000000
000000
000000
000000
000000
ENDCHAR
STARTCHAR C116
ENCODING 78
SWIDTH 963 0
DWIDTH 17 0
BBX 17 25 0 -5
BITMAP
f03e00
701c00
300800
380800
3c0800
2c0800
260800
260800
230800
230800
218800
218800
20c800
20c800
206800
206800
203800
203800
701800
f81800
000000
000000
000000
000000
000000
ENDCHAR
STARTCHAR C117
ENCODING 79
SWIDTH 963 0
DWIDTH 17 0
BBX 17 25 0 -5
BITMAP
078000
1fe000
387000
703800
601800
601800
c00c00
c00c00
c00c00
c00c00
c00c00
c00c00
c00c00
c00c00
601800
601800
703800
387000
1fe000
078000
000000
000000
000000
000000
000000
ENDCHAR
STARTCHAR C120
ENCODING 80
SWIDTH 963 0
DWIDTH 17 0
BBX 17 25 0 -5
BITMAP
ffc000
7fe000
307000
303000
303000
303000
303000
303000
303000
306000
3fc000
3f8000
300000
300000
300000
300000
300000
300000
7c0000
fe0000
000000
000000
000000
000000
000000
ENDCHAR
STARTCHAR C121
ENCODING 81
SWIDTH 963 0
DWIDTH 17 0
BBX 17 25 0 -5
BITMAP
078000
1fe000
387000
703800
601800
601800
c00c00
c00c00
c00c00
c00c00
c00c00
c00c00
c00c00
c00c00
601800
601800
703800
3b7000
1fe000
078000
01c000
00e000
007000
003800
001c00
ENDCHAR
STARTCHAR C122
ENCODING 82
SWIDTH 963 0
DWIDTH 17 0
BBX 17 25 0 -5
BITMAP
7fe000
3ff000
183800
181800
181800
181800
181800
181800
181800
183000
1fe000
1fc000
18c000
186000
186000
183000
183800
181800
7e1e00
ff0f00
000000
000000
000000
000000
000000
ENDCHAR
STARTCHAR C123
ENCODING 83
SWIDTH 963 0
DWIDTH 17 0
BBX 17 25 0 -5
BITMAP
3f4000
7fc000
c0c000
c04000
c04000
c00000
c00000
700000
3e0000
0f8000
01c000
00e000
006000
006000
006000
806000
c06000
c0e000
ffc000
ff8000
000000
000000
000000
000000
000000
ENDCHAR
STARTCHAR C124
ENCODING 84
SWIDTH 963 0
DWIDTH 17 0
BBX 17 25 0 -5
BITMAP
fffc00
fffc00
c30c00
c30c00
830400
030000
030000
030000
030000
030000
030000
030000
030000
030000
030000
030000
030000
0fc000
1fe000
000000
000000
000000
000000
000000
000000
ENDCHAR
STARTCHAR C125
ENCODING 85
SWIDTH 963 0
DWIDTH 17 0
BBX 17 25 0 -5
BITMAP
fc7e00
783c00
301800
301800
301800
301800
301800
301800
301800
301800
301800
301800
301800
301800
301800
301800
301800
183000
1ff000
07c000
000000
000000
000000
000000
000000
ENDCHAR
STARTCHAR C126
ENCODING 86
SWIDTH 963 0
DWIDTH 17 0
BBX 17 25 0 -5
BITMAP
fc3e00
781c00
300800
300800
181800
181000
181000
181000
0c3000
0c2000
0c2000
0c2000
066000
064000
064000
064000
03c000
038000
038000
010000
000000
000000
000000
000000
000000
ENDCHAR
STARTCHAR C127
ENCODING 87
SWIDTH 963 0
DWIDTH 17 0
BBX 17 25 0 -5
BITMAP
fc0f80
780700
300200
300200
300200
300200
300200
308200
19c400
19c400
19c400
1a4400
1a6400
1a6c00
0e6800
0c6800
0c3800
0c3800
0c3800
0c1000
000000
000000
000000
000000
000000
ENDCHAR
STARTCHAR C130
ENCODING 88
SWIDTH 963 0
DWIDTH 17 0
BBX 17 25 0 -5
BITMAP
f07c00
703800
183000
182000
0c6000
0c4000
06c000
078000
038000
030000
038000
038000
078000
04c000
0cc000
086000
186000
103000
703800
f83c00
000000
000000
000000
000000
000000
ENDCHAR
STARTCHAR C131
ENCODING 89
SWIDTH 963 0
DWIDTH 17 0
BBX 17 25 0 -5
BITMAP
f07c00
703800
301000
303000
182000
186000
0c4000
0cc000
068000
078000
030000
030000
030000
030000
030000
030000
030000
030000
078000
0fc000
000000
000000
000000
000000
000000
ENDCHAR
STARTCHAR C132
ENCODING 90
SWIDTH 963 0
DWIDTH 17 0
BBX 17 25 0 -5
BITMAP
fff000
fff000
c03000
803000
006000
00c000
00c000
018000
030000
030000
060000
0c0000
0c0000
180000
300000
300000
601000
c03000
fff000
fff000
000000
000000
000000
000000
000000
ENDCHAR
STARTCHAR C133
ENCODING 91
SWIDTH 963 0
DWIDTH 17 0
BBX 17 25 0 -5
BITMAP
fc0000
fc0000
c00000
c00000
c00000
c00000
c00000
c00000
c00000
c00000
c00000
c00000
c00000
c00000
c00000
c00000
c00000
c00000
c00000
c00000
fc0000
fc0000
000000
000000
000000
ENDCHAR
STARTCHAR C134
ENCODING 92
SWIDTH 963 0
DWIDTH 17 0
BBX 17 25 0 -5
BITMAP
c00000
c00000
600000
600000
300000
300000
180000
180000
0c0000
0c0000
060000
060000
030000
030000
018000
018000
00c000
00c000
006000
006000
003000
003000
000000
000000
000000
ENDCHAR
STARTCHAR C135
ENCODING 93
SWIDTH 963 0
DWIDTH 17 0
BBX 17 25 0 -5
BITMAP
fc0000
fc0000
0c0000
0c0000
0c0000
0c0000
0c0000
0c0000
0c0000
0c0000
0c0000
0c0000
0c0000
0c0000
0c0000
0c0000
0c0000
0c0000
0c0000
0c0000
fc0000
fc0000
000000
000000
000000
ENDCHAR
STARTCHAR C136
ENCODING 94
SWIDTH 963 0
DWIDTH 17 0
BBX 17 25 0 -5
BITMAP
000000
060000
0f0000
198000
30c000
606000
c03000
000000
000000
000000
000000
000000
000000
000000
000000
000000
000000
000000
000000
000000
000000
000000
000000
000000
000000
ENDCHAR
STARTCHAR C137
ENCODING 95
SWIDTH 963 0
DWIDTH 17 0
BBX 17 25 0 -5
BITMAP
000000
000000
000000
000000
000000
000000
000000
000000
000000
000000
000000
000000
000000
000000
000000
000000
000000
000000
000000
000000
fffe00
fffe00
000000
000000
000000
ENDCHAR
STARTCHAR C140
ENCODING 96
SWIDTH 963 0
DWIDTH 17 0
BBX 17 25 0 -5
BITMAP
040000
0e0000
1f0000
0e0000
248000
75c000
fbe000
75c000
248000
0e0000
1f0000
0e0000
040000
040000
040000
040000
040000
040000
040000
040000
000000
000000
000000
000000
000000
ENDCHAR
STARTCHAR C141
ENCODING 97
SWIDTH 963 0
DWIDTH 17 0
BBX 17 25 0 -5
BITMAP
000000
000000
000000
000000
000000
07c000
1fe000
386000
306000
306000
006000
0fe000
3fe000
706000
c06000
c06000
c0e000
c1e400
7f7c00
3e7800
000000
000000
000000
000000
000000
ENDCHAR
STARTCHAR C142
ENCODING 98
SWIDTH 963 0
DWIDTH 17 0
BBX 17 25 0 -5
BITMAP
700000
f00000
300000
300000
300000
33e000
37f000
3c1800
380c00
300c00
300c00
300c00
300c00
300c00
300c00
300c00
381800
3c3800
37f000
33c000
000000
000000
000000
000000
000000
ENDCHAR
STARTCHAR C143
ENCODING 99
SWIDTH 963 0
DWIDTH 17 0
BBX 17 25 0 -5
BITMAP
000000
000000
000000
000000
000000
0fc000
3fe000
60e000
606000
c00000
c00000
c00000
c00000
c00000
c00000
e00000
701800
787000
3fe000
0f8000
000000
000000
000000
000000
000000
ENDCHAR
STARTCHAR C144
ENCODING 100
SWIDTH 963 0
DWIDTH 17 0
BBX 17 25 0 -5
BITMAP
00f000
01f000
003000
003000
003000
1f3000
3fb000
60f000
c07000
c07000
c03000
c03000
c03000
c03000
c03000
c03000
607000
70f400
3fbc00
1f3800
000000
000000
000000
000000
000000
ENDCHAR
STARTCHAR C145
ENCODING 101
SWIDTH 963 0
DWIDTH 17 0
BBX 17 25 0 -5
BITMAP
000000
000000
000000
000000
000000
1f8000
3fc000
606000
603000
c03000
fff000
fff000
c00000
c00000
c00000
c01000
e03000
706000
3fe000
0f8000
000000
000000
000000
000000
000000
ENDCHAR
STARTCHAR C146
ENCODING 102
SWIDTH 963 0
DWIDTH 17 0
BBX 17 25 0 -5
BITMAP
03f000
07f800
0c3000
0c0000
0c0000
0c0000
7ff000
ffe000
0c0000
0c0000
0c0000
0c0000
0c0000
0c0000
0c0000
0c0000
0c0000
1e0000
7fc000
ffe000
000000
000000
000000
000000
000000
ENDCHAR
STARTCHAR C147
ENCODING 103
SWIDTH 963 0
DWIDTH 17 0
BBX 17 25 0 -5
BITMAP
000000
000000
000000
000000
000000
0f0000
1ff800
30e000
606000
606000
606000
606000
306000
38c000
1f8000
1f0000
180000
1fc000
3fe000
707000
c01800
c01800
e03000
7fe000
1fc000
ENDCHAR
STARTCHAR C150
ENCODING 104
SWIDTH 963 0
DWIDTH 17 0
BBX 17 25 0 -5
BITMAP
700000
f00000
300000
300000
300000
33c000
37e000
3c3000
383000
303000
303000
303000
303000
303000
303000
303000
303000
303000
787800
fcfc00
000000
000000
000000
000000
000000
ENDCHAR
STARTCHAR C151
ENCODING 105
SWIDTH 963 0
DWIDTH 17 0
BBX 17 25 0 -5
BITMAP
1c0000
1c0000
1c0000
000000
000000
7c0000
fc0000
0c0000
0c0000
0c0000
0c0000
0c0000
0c0000
0c0000
0c0000
0c0000
0c0000
1e0000
7f8000
ffc000
000000
000000
000000
000000
000000
ENDCHAR
STARTCHAR C152
ENCODING 106
SWIDTH 963 0
DWIDTH 17 0
BBX 17 25 0 -5
BITMAP
070000
070000
070000
000000
000000
1f0000
3f0000
030000
030000
030000
030000
030000
030000
030000
030000
030000
030000
030000
030000
030000
030000
060000
660000
fc0000
f80000
ENDCHAR
STARTCHAR C153
ENCODING 107
SWIDTH 963 0
DWIDTH 17 0
BBX 17 25 0 -5
BITMAP
700000
f00000
300000
300000
300000
303800
307000
30c000
318000
330000
360000
3c0000
3c0000
3e0000
370000
338000
31c000
30e000
787800
fc3800
000000
000000
000000
000000
000000
ENDCHAR
STARTCHAR C154
ENCODING 108
SWIDTH 963 0
DWIDTH 17 0
BBX 17 25 0 -5
BITMAP
7c0000
fc0000
0c0000
0c0000
0c0000
0c0000
0c0000
0c0000
0c0000
0c0000
0c0000
0c0000
0c0000
0c0000
0c0000
0c0000
0c0000
1e0000
7f8000
ffc000
000000
000000
000000
000000
000000
ENDCHAR
STARTCHAR C155
ENCODING 109
SWIDTH 963 0
DWIDTH 17 0
BBX 17 25 0 -5
BITMAP
000000
000000
000000
000000
000000
633000
f7f800
3dcc00
398c00
318c00
318c00
318c00
318c00
318c00
318c00
318c00
318c00
318c00
7bde00
fbde00
000000
000000
000000
000000
000000
ENDCHAR
STARTCHAR C156
ENCODING 110
SWIDTH 963 0
DWIDTH 17 0
BBX 17 25 0 -5
BITMAP
000000
000000
000000
000000
000000
63c000
f7e000
3c3000
383000
303000
303000
303000
303000
303000
303000
303000
303000
303000
787800
fcfc00
000000
000000
000000
000000
000000
ENDCHAR
STARTCHAR C157
ENCODING 111
SWIDTH 963 0
DWIDTH 17 0
BBX 17 25 0 -5
BITMAP
000000
000000
000000
000000
000000
0f0000
3fc000
70e000
606000
c03000
c03000
c03000
c03000
c03000
c03000
c03000
606000
70e000
3fc000
0f0000
000000
000000
000000
000000
000000
ENDCHAR
STARTCHAR C160
ENCODING 112
SWIDTH 963 0
DWIDTH 17 0
BBX 17 25 0 -5
BITMAP
000000
000000
000000
000000
000000
73c000
f7e000
3c3000
381800
301800
301800
301800
301800
301800
301800
301800
303000
387000
3fe000
378000
300000
300000
300000
780000
fc0000
ENDCHAR
STARTCHAR C161
ENCODING 113
SWIDTH 963 0
DWIDTH 17 0
BBX 17 25 0 -5
BITMAP
000000
000000
000000
000000
000000
1e3000
3f7000
61e000
60e000
c06000
c06000
c06000
c06000
c06000
c06000
c06000
60e000
71e000
3fe000
0f6000
006000
006000
006000
007000
007800
ENDCHAR
STARTCHAR C162
ENCODING 114
SWIDTH 963 0
DWIDTH 17 0
BBX 17 25 0 -5
BITMAP
000000
000000
000000
000000
000000
70c000
fbe000
1b7000
1e3000
1c0000
180000
180000
180000
180000
180000
180000
180000
180000
3e0000
7f0000
000000
000000
000000
000000
000000
ENDCHAR
STARTCHAR C163
ENCODING 115
SWIDTH 963 0
DWIDTH 17 0
BBX 17 25 0 -5
BITMAP
000000
000000
000000
000000
000000
1f0000
3fc000
61c000
c08000
c00000
600000
7c0000
1f8000
03c000
006000
006000
406000
e0c000
ffc000
7f0000
000000
000000
000000
000000
000000
ENDCHAR
STARTCHAR C164
ENCODING 116
SWIDTH 963 0
DWIDTH 17 0
BBX 17 25 0 -5
BITMAP
000000
040000
0c0000
0c0000
0c0000
7ff000
ffe000
0c0000
0c0000
0c0000
0c0000
0c0000
0c0000
0c0000
0c0000
0c0000
0c1800
0c7000
0fe000
078000
000000
000000
000000
000000
000000
ENDCHAR
STARTCHAR C165
ENCODING 117
SWIDTH 963 0
DWIDTH 17 0
BBX 17 25 0 -5
BITMAP
000000
000000
000000
000000
000000
703800
f07800
301800
301800
301800
301800
301800
301800
301800
301800
303800
307800
38de00
1f9e00
0f1800
000000
000000
000000
000000
000000
ENDCHAR
STARTCHAR C166
ENCODING 118
SWIDTH 963 0
DWIDTH 17 0
BBX 17 25 0 -5
BITMAP
000000
000000
000000
000000
000000
f87e00
783c00
181800
181000
0c1000
0c3000
0c2000
0c2000
066000
064000
064000
06c000
038000
038000
038000
000000
000000
000000
000000
000000
ENDCHAR
STARTCHAR C167
ENCODING 119
SWIDTH 963 0
DWIDTH 17 0
BBX 17 25 0 -5
BITMAP
000000
000000
000000
000000
000000
f81f00
700e00
300400
300400
318400
318c00
318800
1bc800
1ac800
1a4800
1a5800
1c7000
1c7000
0c3000
0c3000
000000
000000
000000
000000
000000
ENDCHAR
STARTCHAR C170
ENCODING 120
SWIDTH 963 0
DWIDTH 17 0
BBX 17 25 0 -5
BITMAP
000000
000000
000000
000000
000000
f0fc00
787800
1c6000
0cc000
0f8000
070000
030000
030000
078000
0d8000
18c000
18e000
306000
787800
fc7c00
000000
000000
000000
000000
000000
ENDCHAR
STARTCHAR C171
ENCODING 121
SWIDTH 963 0
DWIDTH 17 0
BBX 17 25 0 -5
BITMAP
000000
000000
000000
000000
000000
f0fc00
707800
303000
182000
186000
184000
0cc000
0c8000
068000
078000
070000
030000
060000
060000
060000
0c0000
0c0000
380000
700000
700000
ENDCHAR
STARTCHAR C172
ENCODING 122
SWIDTH 963 0
DWIDTH 17 0
BBX 17 25 0 -5
BITMAP
000000
000000
000000
000000
000000
ffc000
ffc000
c18000
830000
060000
040000
0c0000
180000
100000
300000
600000
e04000
c0c000
ffc000
ffc000
000000
000000
000000
000000
000000
ENDCHAR
STARTCHAR C173
ENCODING 123
SWIDTH 963 0
DWIDTH 17 0
BBX 17 25 0 -5
BITMAP
038000
060000
0c0000
0c0000
180000
180000
180000
180000
180000
300000
700000
e00000
700000
300000
180000
180000
180000
180000
180000
0c0000
0c0000
060000
038000
000000
000000
ENDCHAR
STARTCHAR C174
ENCODING 124
SWIDTH 963 0
DWIDTH 17 0
BBX 17 25 0 -5
BITMAP
c00000
c00000
c00000
c00000
c00000
c00000
c00000
c00000
c00000
c00000
c00000
c00000
c00000
c00000
c00000
c00000
c00000
c00000
c00000
c00000
c00000
c00000
000000
000000
000000
ENDCHAR
STARTCHAR C175
ENCODING 125
SWIDTH 963 0
DWIDTH 17 0
BBX 17 25 0 -5
BITMAP
e00000
300000
180000
180000
0c0000
0c0000
0c0000
0c0000
0c0000
060000
070000
038000
070000
060000
0c0000
0c0000
0c0000
0c0000
0c0000
180000
180000
300000
e00000
000000
000000
ENDCHAR
STARTCHAR C176
ENCODING 126
SWIDTH 963 0
DWIDTH 17 0
BBX 17 25 0 -5
BITMAP
000000
1c0000
3e0c00
631800
c1f000
00e000
000000
000000
000000
000000
000000
000000
000000
000000
000000
000000
000000
000000
000000
000000
000000
000000
000000
000000
000000
ENDCHAR
STARTCHAR C177
ENCODING 127
SWIDTH 963 0
DWIDTH 17 0
BBX 17 25 0 -5
BITMAP
000000
000000
000000
000000
000000
000000
000000
000000
000000
000000
000000
000000
000000
000000
000000
000000
000000
000000
000000
000000
000000
000000
000000
000000
000000
ENDCHAR
ENDFONT
